
  <svg
    width="1000"
    height="1000"
    viewBox="0 0 1000 1000"
    xmlns="http://www.w3.org/2000/svg"
  >
    <defs>
      
      
      <linearGradient id="linearGradientId" gradientTransform="rotate(-45 0.5 0.5)">
      <stop offset="0%"  stop-color="#21D4FD" />
			<stop offset="100%"  stop-color="#B721FF" />
    </linearGradient>
      
      
      
      
      <clipPath id="shape">
        <path fill="currentColor" d="M829,669.5Q770,839,581,905.5Q392,972,309,802Q226,632,172,474Q118,316,261,197Q404,78,603,99.5Q802,121,845,310.5Q888,500,829,669.5Z"></path>
      </clipPath>
    </defs>
  
    

    <g  clip-path="url(#shape)">
      <path fill="url(#linearGradientId)" d="M829,669.5Q770,839,581,905.5Q392,972,309,802Q226,632,172,474Q118,316,261,197Q404,78,603,99.5Q802,121,845,310.5Q888,500,829,669.5Z" />
    </g>

    
  
  </svg>