<?xml version="1.0" standalone="no"?>
<svg xmlns:xlink="http://www.w3.org/1999/xlink" id="wave" style="transform:rotate(0deg); transition: 0.3s" viewBox="0 0 1440 490" version="1.1" xmlns="http://www.w3.org/2000/svg"><defs><linearGradient id="sw-gradient-0" x1="0" x2="0" y1="1" y2="0"><stop stop-color="rgba(62, 95.837, 243, 1)" offset="0%"/><stop stop-color="rgba(20.236, 177.338, 246.249, 0.31)" offset="100%"/></linearGradient></defs><path style="transform:translate(0, 0px); opacity:1" fill="url(#sw-gradient-0)" d="M0,245L26.7,204.2C53.3,163,107,82,160,65.3C213.3,49,267,98,320,98C373.3,98,427,49,480,73.5C533.3,98,587,196,640,253.2C693.3,310,747,327,800,318.5C853.3,310,907,278,960,245C1013.3,212,1067,180,1120,179.7C1173.3,180,1227,212,1280,196C1333.3,180,1387,114,1440,89.8C1493.3,65,1547,82,1600,98C1653.3,114,1707,131,1760,147C1813.3,163,1867,180,1920,228.7C1973.3,278,2027,359,2080,383.8C2133.3,408,2187,376,2240,302.2C2293.3,229,2347,114,2400,130.7C2453.3,147,2507,294,2560,351.2C2613.3,408,2667,376,2720,359.3C2773.3,343,2827,343,2880,294C2933.3,245,2987,147,3040,106.2C3093.3,65,3147,82,3200,122.5C3253.3,163,3307,229,3360,269.5C3413.3,310,3467,327,3520,285.8C3573.3,245,3627,147,3680,114.3C3733.3,82,3787,114,3813,130.7L3840,147L3840,490L3813.3,490C3786.7,490,3733,490,3680,490C3626.7,490,3573,490,3520,490C3466.7,490,3413,490,3360,490C3306.7,490,3253,490,3200,490C3146.7,490,3093,490,3040,490C2986.7,490,2933,490,2880,490C2826.7,490,2773,490,2720,490C2666.7,490,2613,490,2560,490C2506.7,490,2453,490,2400,490C2346.7,490,2293,490,2240,490C2186.7,490,2133,490,2080,490C2026.7,490,1973,490,1920,490C1866.7,490,1813,490,1760,490C1706.7,490,1653,490,1600,490C1546.7,490,1493,490,1440,490C1386.7,490,1333,490,1280,490C1226.7,490,1173,490,1120,490C1066.7,490,1013,490,960,490C906.7,490,853,490,800,490C746.7,490,693,490,640,490C586.7,490,533,490,480,490C426.7,490,373,490,320,490C266.7,490,213,490,160,490C106.7,490,53,490,27,490L0,490Z"/></svg>