<?xml version="1.0" standalone="no"?>
<svg xmlns:xlink="http://www.w3.org/1999/xlink" id="wave" style="transform:rotate(180deg); transition: 0.3s" viewBox="0 0 1440 490" version="1.1" xmlns="http://www.w3.org/2000/svg"><defs><linearGradient id="sw-gradient-0" x1="0" x2="0" y1="1" y2="0"><stop stop-color="rgba(62, 218.473, 243, 1)" offset="0%"/><stop stop-color="rgba(11, 255, 205.404, 1)" offset="100%"/></linearGradient></defs><path style="transform:translate(0, 0px); opacity:1" fill="url(#sw-gradient-0)" d="M0,196L34.3,187.8C68.6,180,137,163,206,147C274.3,131,343,114,411,114.3C480,114,549,131,617,179.7C685.7,229,754,310,823,326.7C891.4,343,960,294,1029,294C1097.1,294,1166,343,1234,359.3C1302.9,376,1371,359,1440,310.3C1508.6,261,1577,180,1646,147C1714.3,114,1783,131,1851,171.5C1920,212,1989,278,2057,310.3C2125.7,343,2194,343,2263,359.3C2331.4,376,2400,408,2469,383.8C2537.1,359,2606,278,2674,269.5C2742.9,261,2811,327,2880,351.2C2948.6,376,3017,359,3086,326.7C3154.3,294,3223,245,3291,253.2C3360,261,3429,327,3497,343C3565.7,359,3634,327,3703,310.3C3771.4,294,3840,294,3909,245C3977.1,196,4046,98,4114,49C4182.9,0,4251,0,4320,73.5C4388.6,147,4457,294,4526,359.3C4594.3,425,4663,408,4731,334.8C4800,261,4869,131,4903,65.3L4937.1,0L4937.1,490L4902.9,490C4868.6,490,4800,490,4731,490C4662.9,490,4594,490,4526,490C4457.1,490,4389,490,4320,490C4251.4,490,4183,490,4114,490C4045.7,490,3977,490,3909,490C3840,490,3771,490,3703,490C3634.3,490,3566,490,3497,490C3428.6,490,3360,490,3291,490C3222.9,490,3154,490,3086,490C3017.1,490,2949,490,2880,490C2811.4,490,2743,490,2674,490C2605.7,490,2537,490,2469,490C2400,490,2331,490,2263,490C2194.3,490,2126,490,2057,490C1988.6,490,1920,490,1851,490C1782.9,490,1714,490,1646,490C1577.1,490,1509,490,1440,490C1371.4,490,1303,490,1234,490C1165.7,490,1097,490,1029,490C960,490,891,490,823,490C754.3,490,686,490,617,490C548.6,490,480,490,411,490C342.9,490,274,490,206,490C137.1,490,69,490,34,490L0,490Z"/></svg>